<svg width="37" height="37" viewBox="0 0 37 37" fill="none" xmlns="http://www.w3.org/2000/svg">
<path d="M35.4583 4.62488C33.982 5.66624 32.3474 6.46271 30.6175 6.98363C29.689 5.91604 28.455 5.15936 27.0825 4.81593C25.7099 4.4725 24.265 4.55889 22.9432 5.06341C21.6213 5.56793 20.4863 6.46625 19.6916 7.63686C18.897 8.80747 18.481 10.1939 18.5 11.6086V13.1503C15.7907 13.2205 13.1061 12.6197 10.6853 11.4012C8.26444 10.1827 6.18253 8.38444 4.62496 6.16654C4.62496 6.16654 -1.54171 20.0415 12.3333 26.2082C9.15827 28.3634 5.37599 29.4441 1.54163 29.2915C15.4166 36.9999 32.375 29.2915 32.375 11.5624C32.3735 11.133 32.3322 10.7046 32.2516 10.2828C33.8251 8.7311 34.9354 6.77198 35.4583 4.62488V4.62488Z" stroke="#EDF4F8" stroke-width="2" stroke-linecap="round" stroke-linejoin="round"/>
</svg>
