<?xml version="1.0" standalone="no"?>
<!DOCTYPE svg PUBLIC "-//W3C//DTD SVG 20010904//EN"
 "http://www.w3.org/TR/2001/REC-SVG-20010904/DTD/svg10.dtd">
<svg version="1.0" xmlns="http://www.w3.org/2000/svg"
 width="136.000000pt" height="196.000000pt" viewBox="0 0 136.000000 196.000000"
 preserveAspectRatio="xMidYMid meet">

<g transform="translate(0.000000,196.000000) scale(0.100000,-0.100000)"
fill="#000000" stroke="none">
<path d="M43 1950 c-12 -5 -26 -18 -32 -29 -8 -13 -11 -311 -11 -950 0 -918 0
-931 20 -951 20 -20 33 -20 658 -20 637 0 639 0 658 21 18 20 19 53 22 933 2
609 0 923 -7 947 -7 23 -20 40 -36 47 -31 14 -1237 16 -1272 2z m1275 -32 c17
-17 17 -1869 0 -1886 -9 -9 -165 -12 -639 -12 -557 0 -629 2 -643 16 -14 14
-16 112 -16 935 0 615 3 927 10 940 10 18 28 19 643 19 479 0 636 -3 645 -12z"/>
<path d="M75 1878 c-3 -7 -4 -418 -3 -913 l3 -900 599 -3 c473 -2 601 0 608
10 9 15 11 1778 2 1802 -6 14 -68 16 -605 16 -471 0 -601 -3 -604 -12z m1156
-28 c19 -10 19 -31 19 -868 0 -471 -4 -863 -8 -870 -7 -10 -127 -12 -568 -10
l-559 3 -3 864 c-1 630 1 867 9 877 9 12 108 14 551 14 353 0 546 -4 559 -10z"/>
<path d="M135 1829 c-12 -18 3 -22 20 -5 14 14 14 16 1 16 -8 0 -18 -5 -21
-11z"/>
<path d="M196 1826 c19 -14 18 -15 -6 -43 -30 -32 -41 -87 -16 -77 8 3 16 18
18 32 3 25 7 27 62 32 58 5 58 5 37 24 -23 21 -30 46 -7 27 11 -10 20 -10 36
-1 17 9 25 9 34 -1 8 -9 7 -11 -7 -6 -12 5 -16 3 -11 -5 5 -8 1 -9 -12 -5 -14
5 -12 2 6 -13 21 -16 40 -20 114 -20 l89 0 -21 23 c-29 31 -28 46 1 20 39 -36
64 -43 153 -43 l87 0 -28 26 c-40 37 -22 42 22 5 36 -30 41 -31 133 -31 69 1
90 3 78 11 -10 5 -23 20 -30 32 -10 19 -9 20 4 9 13 -10 21 -10 42 -1 21 10
29 10 39 -1 10 -10 8 -12 -11 -7 -14 3 -20 1 -15 -6 4 -7 0 -8 -13 -4 -14 5
-12 2 6 -13 20 -16 40 -20 103 -20 l77 0 0 -52 0 -51 23 21 c31 29 46 28 20 0
-36 -40 -43 -65 -42 -155 0 -83 1 -87 16 -65 8 12 22 22 30 22 10 0 4 -12 -16
-37 -30 -36 -31 -42 -31 -130 l0 -92 26 26 c14 14 28 22 32 19 3 -4 2 -10 -4
-14 -5 -4 -20 -21 -32 -39 -19 -27 -22 -44 -22 -125 1 -68 3 -88 11 -76 5 10
20 23 32 30 19 10 20 9 9 -4 -7 -9 -10 -22 -6 -31 3 -8 1 -18 -5 -22 -6 -3
-11 -1 -11 6 0 7 -7 4 -15 -7 -10 -13 -14 -46 -15 -108 l0 -89 23 21 c31 29
46 28 20 -1 -36 -39 -43 -64 -43 -153 l0 -87 26 28 c37 40 42 22 5 -22 -30
-36 -31 -41 -31 -130 l0 -92 26 26 c14 14 28 22 32 19 3 -4 2 -10 -4 -14 -5
-4 -20 -21 -32 -39 -18 -25 -22 -45 -22 -102 l0 -71 -57 -1 c-34 -1 -46 -4
-28 -6 32 -5 55 -19 55 -34 0 -5 -10 -4 -21 3 -17 10 -23 10 -26 1 -5 -14 -27
-7 -65 19 -17 12 -40 18 -60 16 -33 -3 -33 -3 22 -30 41 -20 71 -27 118 -27
37 0 61 3 57 9 -8 12 21 56 42 64 9 4 20 1 25 -6 4 -7 7 13 6 47 -1 40 -3 48
-5 25 -5 -37 -19 -60 -36 -60 -7 0 -7 4 1 12 17 17 15 41 -3 34 -15 -5 -22 9
-7 16 4 2 18 17 30 35 19 26 22 44 22 119 0 82 -1 86 -18 72 -9 -8 -24 -19
-32 -23 -13 -7 -13 -6 -2 7 10 12 10 21 1 42 -10 21 -10 29 1 39 10 10 12 8 7
-11 -3 -14 -1 -20 6 -15 7 4 8 0 4 -13 -5 -14 -2 -12 13 6 16 21 20 40 20 114
l0 89 -23 -21 c-26 -25 -46 -30 -28 -8 10 11 10 20 1 36 -9 17 -9 25 1 34 9 8
11 7 6 -7 -5 -12 -3 -16 5 -11 8 5 9 1 5 -12 -5 -14 -2 -12 13 6 16 21 19 39
18 115 -1 50 -3 74 -5 55 -2 -19 -10 -39 -17 -45 -7 -5 -16 -19 -21 -30 -8
-19 -9 -19 -13 4 -2 14 2 30 10 35 8 6 18 20 22 31 6 16 5 18 -5 8 -22 -22
-33 -14 -13 9 38 45 44 67 43 155 -1 57 -4 76 -8 53 -3 -20 -16 -49 -28 -65
-20 -27 -22 -28 -23 -9 0 12 7 27 15 34 19 16 19 34 0 26 -15 -5 -22 9 -7 16
4 2 18 17 30 35 19 26 22 44 22 119 0 82 -1 86 -17 72 -10 -8 -25 -19 -33 -23
-13 -7 -13 -6 -2 7 10 12 10 21 1 42 -10 21 -10 29 1 39 10 10 12 8 7 -11 -3
-14 -1 -20 6 -15 7 4 8 0 4 -13 -5 -14 -2 -12 13 6 16 21 20 40 20 114 l0 89
-23 -21 c-26 -25 -46 -30 -28 -8 10 11 10 20 1 36 -9 17 -9 25 1 34 9 8 11 7
6 -7 -5 -12 -3 -16 5 -11 8 5 9 1 5 -12 -5 -14 -2 -12 13 6 15 19 20 40 20 94
l0 70 -20 -22 c-11 -12 -20 -28 -20 -36 0 -8 -4 -18 -10 -21 -6 -4 -10 5 -10
20 0 14 7 28 16 32 13 5 11 10 -12 34 -23 24 -25 31 -14 44 11 13 4 15 -56 15
-43 0 -64 -4 -55 -9 7 -5 22 -6 32 -4 20 6 49 -12 49 -30 0 -7 -4 -7 -12 1
-17 17 -41 15 -34 -3 5 -15 -9 -22 -16 -7 -1 4 -17 18 -35 30 -27 19 -44 22
-125 22 -68 -1 -88 -3 -76 -11 10 -5 23 -20 30 -32 10 -19 9 -20 -4 -9 -13 10
-21 10 -42 1 -21 -10 -29 -10 -39 1 -10 10 -8 12 11 7 14 -3 20 -1 15 6 -4 7
0 8 13 4 14 -5 12 -2 -6 13 -21 16 -40 20 -114 20 l-89 0 21 -23 c25 -26 30
-46 8 -28 -11 10 -20 10 -36 1 -17 -9 -25 -9 -34 1 -8 9 -7 11 7 6 12 -5 16
-3 11 5 -5 8 -1 9 12 5 14 -5 12 -2 -6 13 -21 16 -40 20 -114 20 l-89 0 21
-23 c29 -31 28 -46 0 -20 -40 36 -65 43 -149 43 -74 0 -81 -1 -63 -14z m271
-9 c4 -8 17 -17 28 -22 19 -8 19 -9 -4 -13 -15 -2 -29 2 -37 12 -6 9 -16 16
-22 16 -6 0 -14 5 -17 10 -3 6 5 10 19 10 14 0 29 -6 33 -13z m108 4 c7 -12
-31 -24 -47 -15 -8 5 -6 10 8 15 26 10 32 10 39 0z m124 -16 c21 -22 21 -25 5
-25 -11 1 -32 12 -49 25 l-30 25 25 0 c14 0 36 -12 49 -25z m95 16 c7 -10 -33
-23 -47 -14 -10 6 11 23 30 23 6 0 14 -4 17 -9z m121 -16 c26 -21 27 -25 10
-25 -11 1 -33 12 -50 25 -26 21 -27 25 -10 25 11 -1 34 -12 50 -25z m-655 -5
c10 0 22 -4 25 -10 9 -14 -29 -12 -43 2 -7 7 -12 17 -11 23 0 5 3 4 6 -2 2 -7
13 -13 23 -13z m134 1 c7 -10 -33 -23 -47 -14 -10 6 11 23 30 23 6 0 14 -4 17
-9z m650 0 c9 -13 -37 -22 -49 -9 -7 8 -5 9 8 5 9 -4 17 -2 17 3 0 12 17 13
24 1z m167 -174 c-11 -11 -25 28 -15 45 5 7 10 3 16 -12 5 -14 5 -27 -1 -33z
m-15 -124 c-21 -20 -26 -22 -26 -9 0 9 10 31 23 47 21 29 22 30 25 9 2 -13 -7
-31 -22 -47z m19 -91 c-6 -15 -8 -14 -16 6 -11 29 0 52 13 28 5 -10 7 -25 3
-34z m-17 -122 c-16 -23 -24 -27 -26 -16 -2 8 7 29 20 46 16 23 24 27 26 16 2
-8 -7 -29 -20 -46z m6 -115 c-17 -27 -18 -27 -26 -6 -5 15 -2 30 9 48 16 25
17 25 26 5 6 -14 4 -27 -9 -47z m-1 -215 c-16 -33 -16 -33 -25 -10 -6 15 -5
27 3 34 9 8 10 6 6 -9 -6 -17 -4 -17 10 3 22 32 26 22 6 -18z m8 -203 c-11
-11 -25 28 -15 45 5 7 10 3 16 -12 5 -14 5 -27 -1 -33z m-15 -124 c-21 -20
-26 -22 -26 -9 0 9 10 31 23 47 21 29 22 30 25 9 2 -13 -7 -31 -22 -47z m19
-91 c-6 -15 -8 -14 -16 6 -11 29 0 52 13 28 5 -10 7 -25 3 -34z m-17 -122
c-16 -23 -24 -27 -26 -16 -2 8 7 29 20 46 16 23 24 27 26 16 2 -8 -7 -29 -20
-46z m6 -115 c-17 -27 -18 -27 -26 -6 -5 15 -2 30 9 48 16 25 17 25 26 5 6
-14 4 -27 -9 -47z m-184 -155 c14 -11 22 -20 19 -20 -9 0 -69 31 -69 36 0 10
27 2 50 -16z"/>
<path d="M1190 1200 c-6 -11 -8 -20 -6 -20 3 0 10 9 16 20 6 11 8 20 6 20 -3
0 -10 -9 -16 -20z"/>
<path d="M1190 330 c-6 -11 -8 -20 -6 -20 3 0 10 9 16 20 6 11 8 20 6 20 -3 0
-10 -9 -16 -20z"/>
<path d="M1201 1821 c26 -21 35 -20 26 4 -4 8 -16 15 -28 15 -21 0 -21 0 2
-19z"/>
<path d="M130 1745 c1 -26 2 -28 11 -12 8 14 8 22 0 30 -8 8 -11 3 -11 -18z"/>
<path d="M210 975 l0 -775 470 0 470 0 0 775 0 775 -470 0 -470 0 0 -775z
m910 0 l0 -755 -442 2 -443 3 -3 753 -2 752 445 0 445 0 0 -755z"/>
<path d="M250 975 l0 -735 430 0 430 0 0 735 0 735 -430 0 -430 0 0 -735z m69
713 c11 -11 14 -10 18 0 4 9 8 10 18 2 9 -8 15 -8 20 0 11 17 65 12 65 -6 0
-10 -6 -14 -14 -11 -21 8 -35 -14 -29 -46 4 -20 8 -25 14 -16 6 10 10 10 23 0
20 -17 10 -34 -15 -28 -11 3 -19 0 -19 -5 0 -7 -17 -9 -45 -6 -47 6 -62 -3
-57 -34 4 -24 -15 -23 -27 0 -7 13 -6 27 4 45 10 19 10 27 2 31 -9 3 -8 7 2
14 9 7 10 12 2 16 -6 4 -11 18 -11 32 0 27 26 33 49 12z m711 -1 c0 -4 9 -3
19 3 11 5 27 10 35 10 19 0 21 -31 4 -48 -10 -10 -10 -15 2 -22 11 -8 12 -12
3 -18 -8 -5 -9 -13 -3 -22 14 -22 12 -57 -4 -63 -19 -8 -28 3 -15 19 15 18 -7
28 -57 25 -40 -2 -42 -1 -47 31 -2 18 -1 34 4 36 19 7 -11 40 -31 35 -19 -5
-27 7 -14 20 9 9 104 4 104 -6z m-421 -43 c-9 -11 -15 -12 -25 -3 -11 9 -12
15 -3 25 9 11 15 12 25 3 11 -9 12 -15 3 -25z m170 0 c-9 -11 -15 -12 -25 -3
-11 9 -12 15 -3 25 9 11 15 12 25 3 11 -9 12 -15 3 -25z m-281 9 c-2 -10 -10
-18 -18 -18 -8 0 -16 8 -18 18 -2 12 3 17 18 17 15 0 20 -5 18 -17z m60 0 c-2
-10 -10 -18 -18 -18 -8 0 -16 8 -18 18 -2 12 3 17 18 17 15 0 20 -5 18 -17z
m110 0 c-2 -10 -10 -18 -18 -18 -8 0 -16 8 -18 18 -2 12 3 17 18 17 15 0 20
-5 18 -17z m60 0 c-2 -10 -10 -18 -18 -18 -8 0 -16 8 -18 18 -2 12 3 17 18 17
15 0 20 -5 18 -17z m110 0 c-2 -10 -10 -18 -18 -18 -8 0 -16 8 -18 18 -2 12 3
17 18 17 15 0 20 -5 18 -17z m60 0 c-2 -10 -10 -18 -18 -18 -8 0 -16 8 -18 18
-2 12 3 17 18 17 15 0 20 -5 18 -17z m-400 -56 c2 -12 -3 -17 -17 -17 -12 0
-21 6 -21 13 0 31 32 34 38 4z m57 2 c0 -7 -8 -15 -17 -17 -18 -3 -25 18 -11
32 10 10 28 1 28 -15z m54 7 c9 -10 9 -16 1 -21 -17 -11 -40 3 -34 20 8 19 18
19 33 1z m59 -9 c2 -12 -3 -17 -17 -17 -12 0 -21 6 -21 13 0 31 32 34 38 4z
m57 2 c0 -7 -8 -15 -17 -17 -18 -3 -25 18 -11 32 10 10 28 1 28 -15z m54 7 c9
-10 9 -16 1 -21 -17 -11 -40 3 -34 20 8 19 18 19 33 1z m59 -9 c2 -12 -3 -17
-17 -17 -12 0 -21 6 -21 13 0 31 32 34 38 4z m57 2 c0 -7 -8 -15 -17 -17 -18
-3 -25 18 -11 32 10 10 28 1 28 -15z m58 6 c7 -17 -8 -29 -28 -21 -17 6 -9 36
10 36 7 0 15 -7 18 -15z m-568 -65 c0 -8 -8 -16 -17 -18 -13 -2 -18 3 -18 18
0 15 5 20 18 18 9 -2 17 -10 17 -18z m55 0 c0 -21 -24 -28 -35 -10 -8 14 3 30
21 30 8 0 14 -9 14 -20z m60 6 c0 -8 -5 -18 -11 -22 -14 -8 -33 11 -25 25 10
16 36 13 36 -3z m55 -6 c0 -8 -8 -16 -17 -18 -13 -2 -18 3 -18 18 0 15 5 20
18 18 9 -2 17 -10 17 -18z m55 0 c0 -11 -6 -20 -14 -20 -18 0 -29 16 -21 30
11 18 35 11 35 -10z m60 6 c0 -8 -5 -18 -11 -22 -14 -8 -33 11 -25 25 10 16
36 13 36 -3z m55 -6 c0 -8 -8 -16 -17 -18 -13 -2 -18 3 -18 18 0 15 5 20 18
18 9 -2 17 -10 17 -18z m55 0 c0 -21 -24 -28 -35 -10 -8 14 3 30 21 30 8 0 14
-9 14 -20z m60 6 c0 -20 -19 -31 -32 -18 -6 6 -7 15 -4 21 10 16 36 13 36 -3z
m55 -6 c0 -8 -8 -16 -17 -18 -13 -2 -18 3 -18 18 0 15 5 20 18 18 9 -2 17 -10
17 -18z m55 0 c0 -23 -25 -27 -33 -6 -7 16 1 26 20 26 7 0 13 -9 13 -20z m60
6 c0 -20 -19 -31 -32 -18 -6 6 -7 15 -4 21 10 16 36 13 36 -3z m-401 -72 c-9
-11 -15 -12 -25 -3 -11 9 -12 15 -3 25 9 11 15 12 25 3 11 -9 12 -15 3 -25z
m170 0 c-9 -11 -15 -12 -25 -3 -11 9 -12 15 -3 25 9 11 15 12 25 3 11 -9 12
-15 3 -25z m170 0 c-9 -11 -15 -12 -25 -3 -11 9 -12 15 -3 25 9 11 15 12 25 3
11 -9 12 -15 3 -25z m-621 9 c-2 -10 -10 -18 -18 -18 -8 0 -16 8 -18 18 -2 12
3 17 18 17 15 0 20 -5 18 -17z m57 -3 c0 -22 -29 -18 -33 3 -3 14 1 18 15 15
10 -2 18 -10 18 -18z m59 11 c3 -5 -1 -15 -10 -22 -13 -10 -17 -10 -24 1 -5 8
-6 18 -4 22 7 11 31 10 38 -1z m54 -8 c-2 -10 -10 -18 -18 -18 -8 0 -16 8 -18
18 -2 12 3 17 18 17 15 0 20 -5 18 -17z m57 -3 c0 -22 -29 -18 -33 3 -3 14 1
18 15 15 10 -2 18 -10 18 -18z m113 3 c-2 -10 -10 -18 -18 -18 -8 0 -16 8 -18
18 -2 12 3 17 18 17 15 0 20 -5 18 -17z m60 0 c-2 -10 -10 -18 -18 -18 -8 0
-16 8 -18 18 -2 12 3 17 18 17 15 0 20 -5 18 -17z m110 0 c-2 -10 -10 -18 -18
-18 -8 0 -16 8 -18 18 -2 12 3 17 18 17 15 0 20 -5 18 -17z m60 0 c-2 -10 -10
-18 -18 -18 -8 0 -16 8 -18 18 -2 12 3 17 18 17 15 0 20 -5 18 -17z m110 0
c-2 -10 -10 -18 -18 -18 -8 0 -16 8 -18 18 -2 12 3 17 18 17 15 0 20 -5 18
-17z m60 0 c-2 -10 -10 -18 -18 -18 -8 0 -16 8 -18 18 -2 12 3 17 18 17 15 0
20 -5 18 -17z m-740 -56 c2 -12 -3 -17 -17 -17 -12 0 -21 6 -21 13 0 31 32 34
38 4z m57 2 c0 -7 -8 -15 -17 -17 -18 -3 -25 18 -11 32 10 10 28 1 28 -15z
m54 7 c9 -10 9 -16 1 -21 -17 -11 -40 3 -34 20 8 19 18 19 33 1z m59 -9 c2
-12 -3 -17 -17 -17 -12 0 -21 6 -21 13 0 31 32 34 38 4z m57 2 c0 -7 -8 -15
-17 -17 -18 -3 -25 18 -11 32 10 10 28 1 28 -15z m54 7 c9 -10 9 -16 1 -21
-17 -11 -40 3 -34 20 8 19 18 19 33 1z m59 -9 c2 -12 -3 -17 -17 -17 -12 0
-21 6 -21 13 0 31 32 34 38 4z m57 2 c0 -7 -8 -15 -17 -17 -18 -3 -25 18 -11
32 10 10 28 1 28 -15z m54 7 c9 -10 9 -16 1 -21 -17 -11 -40 3 -34 20 8 19 18
19 33 1z m59 -9 c2 -12 -3 -17 -17 -17 -12 0 -21 6 -21 13 0 31 32 34 38 4z
m57 2 c0 -7 -8 -15 -17 -17 -18 -3 -25 18 -11 32 10 10 28 1 28 -15z m54 7 c9
-10 9 -16 1 -21 -17 -11 -40 3 -34 20 8 19 18 19 33 1z m59 -9 c2 -12 -3 -17
-17 -17 -12 0 -21 6 -21 13 0 31 32 34 38 4z m60 0 c2 -12 -3 -17 -17 -17 -12
0 -21 6 -21 13 0 31 32 34 38 4z m-742 -48 c10 -17 -13 -36 -27 -22 -12 12 -4
33 11 33 5 0 12 -5 16 -11z m59 -9 c0 -8 -8 -16 -17 -18 -13 -2 -18 3 -18 18
0 15 5 20 18 18 9 -2 17 -10 17 -18z m55 0 c0 -11 -6 -20 -14 -20 -18 0 -29
16 -21 30 11 18 35 11 35 -10z m56 9 c10 -17 -13 -36 -27 -22 -12 12 -4 33 11
33 5 0 12 -5 16 -11z m59 -9 c0 -8 -8 -16 -17 -18 -13 -2 -18 3 -18 18 0 15 5
20 18 18 9 -2 17 -10 17 -18z m55 0 c0 -11 -6 -20 -14 -20 -18 0 -29 16 -21
30 11 18 35 11 35 -10z m56 9 c10 -17 -13 -36 -27 -22 -12 12 -4 33 11 33 5 0
12 -5 16 -11z m59 -9 c0 -8 -8 -16 -17 -18 -13 -2 -18 3 -18 18 0 15 5 20 18
18 9 -2 17 -10 17 -18z m55 0 c0 -21 -24 -28 -35 -10 -8 14 3 30 21 30 8 0 14
-9 14 -20z m60 6 c0 -20 -19 -31 -32 -18 -6 6 -7 15 -4 21 10 16 36 13 36 -3z
m55 -6 c0 -8 -8 -16 -17 -18 -13 -2 -18 3 -18 18 0 15 5 20 18 18 9 -2 17 -10
17 -18z m55 0 c0 -21 -24 -28 -35 -10 -8 14 3 30 21 30 8 0 14 -9 14 -20z m60
6 c0 -20 -19 -31 -32 -18 -6 6 -7 15 -4 21 10 16 36 13 36 -3z m55 -6 c0 -8
-8 -16 -17 -18 -13 -2 -18 3 -18 18 0 15 5 20 18 18 9 -2 17 -10 17 -18z
m-737 -57 c-2 -10 -10 -18 -18 -18 -8 0 -16 8 -18 18 -2 12 3 17 18 17 15 0
20 -5 18 -17z m57 -3 c0 -22 -29 -18 -33 3 -3 14 1 18 15 15 10 -2 18 -10 18
-18z m59 11 c3 -5 -1 -15 -10 -22 -13 -10 -17 -10 -24 1 -5 8 -6 18 -4 22 7
11 31 10 38 -1z m54 -8 c-2 -10 -10 -18 -18 -18 -8 0 -16 8 -18 18 -2 12 3 17
18 17 15 0 20 -5 18 -17z m57 -3 c0 -22 -29 -18 -33 3 -3 14 1 18 15 15 10 -2
18 -10 18 -18z m59 11 c3 -5 -1 -15 -10 -22 -13 -10 -17 -10 -24 1 -5 8 -6 18
-4 22 7 11 31 10 38 -1z m54 -8 c-2 -10 -10 -18 -18 -18 -8 0 -16 8 -18 18 -2
12 3 17 18 17 15 0 20 -5 18 -17z m60 0 c-2 -10 -10 -18 -18 -18 -8 0 -16 8
-18 18 -2 12 3 17 18 17 15 0 20 -5 18 -17z m56 8 c3 -5 -1 -15 -10 -22 -13
-10 -17 -10 -24 1 -5 8 -6 18 -4 22 7 11 31 10 38 -1z m54 -8 c-2 -10 -10 -18
-18 -18 -8 0 -16 8 -18 18 -2 12 3 17 18 17 15 0 20 -5 18 -17z m60 0 c-2 -10
-10 -18 -18 -18 -8 0 -16 8 -18 18 -2 12 3 17 18 17 15 0 20 -5 18 -17z m55
10 c4 -3 2 -12 -4 -20 -9 -10 -15 -10 -25 -2 -8 6 -11 15 -8 20 6 11 28 12 37
2z m55 -10 c-2 -10 -10 -18 -18 -18 -8 0 -16 8 -18 18 -2 12 3 17 18 17 15 0
20 -5 18 -17z m60 0 c-2 -10 -10 -18 -18 -18 -8 0 -16 8 -18 18 -2 12 3 17 18
17 15 0 20 -5 18 -17z m-740 -56 c2 -12 -3 -17 -17 -17 -12 0 -21 6 -21 13 0
31 32 34 38 4z m57 2 c0 -7 -8 -15 -17 -17 -18 -3 -25 18 -11 32 10 10 28 1
28 -15z m54 7 c9 -10 9 -16 1 -21 -17 -11 -40 3 -34 20 8 19 18 19 33 1z m59
-9 c2 -12 -3 -17 -17 -17 -12 0 -21 6 -21 13 0 31 32 34 38 4z m57 2 c0 -7 -8
-15 -17 -17 -18 -3 -25 18 -11 32 10 10 28 1 28 -15z m54 7 c9 -10 9 -16 1
-21 -17 -11 -40 3 -34 20 8 19 18 19 33 1z m59 -9 c2 -12 -3 -17 -17 -17 -12
0 -21 6 -21 13 0 31 32 34 38 4z m57 2 c0 -7 -8 -15 -17 -17 -18 -3 -25 18
-11 32 10 10 28 1 28 -15z m54 7 c9 -10 9 -16 1 -21 -17 -11 -40 3 -34 20 8
19 18 19 33 1z m59 -9 c2 -12 -3 -17 -17 -17 -12 0 -21 6 -21 13 0 31 32 34
38 4z m60 0 c2 -12 -3 -17 -17 -17 -12 0 -21 6 -21 13 0 31 32 34 38 4z m51 9
c9 -10 9 -16 1 -21 -17 -11 -40 3 -34 20 8 19 18 19 33 1z m59 -9 c2 -12 -3
-17 -17 -17 -12 0 -21 6 -21 13 0 31 32 34 38 4z m60 0 c2 -12 -3 -17 -17 -17
-12 0 -21 6 -21 13 0 31 32 34 38 4z m-742 -48 c10 -17 -13 -36 -27 -22 -12
12 -4 33 11 33 5 0 12 -5 16 -11z m59 -9 c0 -8 -8 -16 -17 -18 -13 -2 -18 3
-18 18 0 15 5 20 18 18 9 -2 17 -10 17 -18z m55 0 c0 -21 -24 -28 -35 -10 -8
14 3 30 21 30 8 0 14 -9 14 -20z m56 9 c10 -17 -13 -36 -27 -22 -12 12 -4 33
11 33 5 0 12 -5 16 -11z m59 -9 c0 -8 -8 -16 -17 -18 -13 -2 -18 3 -18 18 0
15 5 20 18 18 9 -2 17 -10 17 -18z m55 0 c0 -21 -24 -28 -35 -10 -8 14 3 30
21 30 8 0 14 -9 14 -20z m170 0 c0 -11 -6 -20 -14 -20 -18 0 -29 16 -21 30 11
18 35 11 35 -10z m56 9 c10 -17 -13 -36 -27 -22 -12 12 -4 33 11 33 5 0 12 -5
16 -11z m59 -9 c0 -8 -8 -16 -17 -18 -13 -2 -18 3 -18 18 0 15 5 20 18 18 9
-2 17 -10 17 -18z m55 0 c0 -11 -6 -20 -14 -20 -18 0 -29 16 -21 30 11 18 35
11 35 -10z m60 6 c0 -20 -19 -31 -32 -18 -6 6 -7 15 -4 21 10 16 36 13 36 -3z
m55 -6 c0 -8 -8 -16 -17 -18 -13 -2 -18 3 -18 18 0 15 5 20 18 18 9 -2 17 -10
17 -18z m-360 -30 c3 -5 12 -7 20 -3 8 3 15 0 15 -5 0 -6 12 -23 26 -37 14
-14 23 -32 20 -40 -2 -7 0 -15 7 -18 21 -7 34 -87 21 -136 -6 -25 -16 -47 -22
-49 -6 -2 -9 -9 -6 -17 7 -18 -42 -68 -82 -84 -35 -14 -52 -8 -106 38 -31 27
-35 48 -13 77 20 26 19 33 -6 31 -16 -1 -19 -6 -14 -26 6 -22 4 -23 -10 -11
-9 8 -14 22 -12 32 3 10 1 18 -3 18 -15 0 -2 103 15 119 15 15 16 14 10 -11
-6 -22 -4 -26 12 -24 10 2 17 5 16 7 0 2 -7 16 -14 32 -14 32 1 77 26 77 8 0
15 7 15 15 0 8 6 12 14 9 8 -3 17 -1 21 5 8 14 42 14 50 1z m-377 -27 c-2 -10
-10 -18 -18 -18 -8 0 -16 8 -18 18 -2 12 3 17 18 17 15 0 20 -5 18 -17z m57
-3 c0 -22 -29 -18 -33 3 -3 14 1 18 15 15 10 -2 18 -10 18 -18z m59 11 c3 -5
-1 -15 -10 -22 -13 -10 -17 -10 -24 1 -5 8 -6 18 -4 22 7 11 31 10 38 -1z m54
-8 c-2 -10 -10 -18 -18 -18 -8 0 -16 8 -18 18 -2 12 3 17 18 17 15 0 20 -5 18
-17z m57 -3 c0 -22 -29 -18 -33 3 -3 14 1 18 15 15 10 -2 18 -10 18 -18z m283
3 c-2 -10 -10 -18 -18 -18 -8 0 -16 8 -18 18 -2 12 3 17 18 17 15 0 20 -5 18
-17z m60 0 c-2 -10 -10 -18 -18 -18 -8 0 -16 8 -18 18 -2 12 3 17 18 17 15 0
20 -5 18 -17z m56 8 c3 -5 -1 -15 -10 -22 -13 -10 -17 -10 -24 1 -5 8 -6 18
-4 22 7 11 31 10 38 -1z m54 -8 c-2 -10 -10 -18 -18 -18 -8 0 -16 8 -18 18 -2
12 3 17 18 17 15 0 20 -5 18 -17z m60 0 c-2 -10 -10 -18 -18 -18 -8 0 -16 8
-18 18 -2 12 3 17 18 17 15 0 20 -5 18 -17z m-740 -56 c2 -12 -3 -17 -17 -17
-12 0 -21 6 -21 13 0 31 32 34 38 4z m57 2 c0 -7 -8 -15 -17 -17 -18 -3 -25
18 -11 32 10 10 28 1 28 -15z m54 7 c9 -10 9 -16 1 -21 -17 -11 -40 3 -34 20
8 19 18 19 33 1z m59 -9 c2 -12 -3 -17 -17 -17 -12 0 -21 6 -21 13 0 31 32 34
38 4z m400 0 c2 -12 -3 -17 -17 -17 -12 0 -21 6 -21 13 0 31 32 34 38 4z m51
9 c9 -10 9 -16 1 -21 -17 -11 -40 3 -34 20 8 19 18 19 33 1z m59 -9 c2 -12 -3
-17 -17 -17 -12 0 -21 6 -21 13 0 31 32 34 38 4z m60 0 c2 -12 -3 -17 -17 -17
-12 0 -21 6 -21 13 0 31 32 34 38 4z m-742 -48 c10 -17 -13 -36 -27 -22 -12
12 -4 33 11 33 5 0 12 -5 16 -11z m59 -9 c0 -8 -8 -16 -17 -18 -13 -2 -18 3
-18 18 0 15 5 20 18 18 9 -2 17 -10 17 -18z m55 0 c0 -21 -24 -28 -35 -10 -8
14 3 30 21 30 8 0 14 -9 14 -20z m56 9 c10 -17 -13 -36 -27 -22 -12 12 -4 33
11 33 5 0 12 -5 16 -11z m399 -9 c0 -8 -8 -16 -17 -18 -13 -2 -18 3 -18 18 0
15 5 20 18 18 9 -2 17 -10 17 -18z m55 0 c0 -21 -24 -28 -35 -10 -8 14 3 30
21 30 8 0 14 -9 14 -20z m58 -3 c2 -10 -3 -17 -12 -17 -18 0 -29 16 -21 31 9
14 29 6 33 -14z m57 3 c0 -8 -8 -16 -17 -18 -13 -2 -18 3 -18 18 0 15 5 20 18
18 9 -2 17 -10 17 -18z m-737 -57 c-2 -10 -10 -18 -18 -18 -8 0 -16 8 -18 18
-2 12 3 17 18 17 15 0 20 -5 18 -17z m57 -3 c0 -22 -29 -18 -33 3 -3 14 1 18
15 15 10 -2 18 -10 18 -18z m59 11 c3 -5 -1 -15 -10 -22 -13 -10 -17 -10 -24
1 -5 8 -6 18 -4 22 7 11 31 10 38 -1z m54 -8 c-2 -10 -10 -18 -18 -18 -8 0
-16 8 -18 18 -2 12 3 17 18 17 15 0 20 -5 18 -17z m397 -3 c0 -22 -29 -18 -33
3 -3 14 1 18 15 15 10 -2 18 -10 18 -18z m59 11 c3 -5 -1 -15 -10 -22 -13 -10
-17 -10 -24 1 -5 8 -6 18 -4 22 7 11 31 10 38 -1z m54 -8 c-2 -10 -10 -18 -18
-18 -8 0 -16 8 -18 18 -2 12 3 17 18 17 15 0 20 -5 18 -17z m60 0 c-2 -10 -10
-18 -18 -18 -8 0 -16 8 -18 18 -2 12 3 17 18 17 15 0 20 -5 18 -17z m-740 -56
c2 -12 -3 -17 -17 -17 -12 0 -21 6 -21 13 0 31 32 34 38 4z m57 2 c0 -7 -8
-15 -17 -17 -18 -3 -25 18 -11 32 10 10 28 1 28 -15z m54 7 c9 -10 9 -16 1
-21 -17 -11 -40 3 -34 20 8 19 18 19 33 1z m59 -9 c2 -12 -3 -17 -17 -17 -12
0 -21 6 -21 13 0 31 32 34 38 4z m400 0 c2 -12 -3 -17 -17 -17 -12 0 -21 6
-21 13 0 31 32 34 38 4z m51 -13 c-9 -11 -15 -12 -25 -3 -11 9 -12 15 -3 25 9
11 15 12 25 3 11 -9 12 -15 3 -25z m59 13 c2 -12 -3 -17 -17 -17 -12 0 -21 6
-21 13 0 31 32 34 38 4z m60 0 c2 -12 -3 -17 -17 -17 -12 0 -21 6 -21 13 0 31
32 34 38 4z m-742 -48 c10 -17 -13 -36 -27 -22 -12 12 -4 33 11 33 5 0 12 -5
16 -11z m59 -9 c0 -8 -8 -16 -17 -18 -13 -2 -18 3 -18 18 0 15 5 20 18 18 9
-2 17 -10 17 -18z m55 0 c0 -21 -24 -28 -35 -10 -8 14 3 30 21 30 8 0 14 -9
14 -20z m58 -3 c2 -10 -3 -17 -12 -17 -18 0 -29 16 -21 31 9 14 29 6 33 -14z
m397 3 c0 -8 -8 -16 -17 -18 -13 -2 -18 3 -18 18 0 15 5 20 18 18 9 -2 17 -10
17 -18z m55 0 c0 -11 -6 -20 -13 -20 -19 0 -27 10 -20 26 8 21 33 17 33 -6z
m58 -3 c2 -10 -3 -17 -12 -17 -18 0 -29 16 -21 31 9 14 29 6 33 -14z m57 2 c0
-7 -8 -15 -17 -17 -18 -3 -25 18 -11 32 10 10 28 1 28 -15z m-737 -56 c-2 -10
-10 -18 -18 -18 -8 0 -16 8 -18 18 -2 12 3 17 18 17 15 0 20 -5 18 -17z m57
-3 c0 -22 -29 -18 -33 3 -3 14 1 18 15 15 10 -2 18 -10 18 -18z m59 11 c3 -5
-1 -15 -10 -22 -13 -10 -17 -10 -24 1 -5 8 -6 18 -4 22 7 11 31 10 38 -1z m54
-8 c-2 -10 -10 -18 -18 -18 -8 0 -16 8 -18 18 -2 12 3 17 18 17 15 0 20 -5 18
-17z m57 -3 c0 -22 -29 -18 -33 3 -3 14 1 18 15 15 10 -2 18 -10 18 -18z m283
3 c-2 -10 -10 -18 -18 -18 -8 0 -16 8 -18 18 -2 12 3 17 18 17 15 0 20 -5 18
-17z m57 -3 c0 -22 -29 -18 -33 3 -3 14 1 18 15 15 10 -2 18 -10 18 -18z m58
14 c9 -9 -4 -34 -18 -34 -14 0 -27 25 -18 34 4 3 12 6 18 6 6 0 14 -3 18 -6z
m55 -11 c-2 -10 -10 -18 -18 -18 -8 0 -16 8 -18 18 -2 12 3 17 18 17 15 0 20
-5 18 -17z m57 -3 c0 -22 -29 -18 -33 3 -3 14 1 18 15 15 10 -2 18 -10 18 -18z
m-737 -53 c2 -12 -3 -17 -17 -17 -12 0 -21 6 -21 13 0 31 32 34 38 4z m57 2
c0 -7 -8 -15 -17 -17 -18 -3 -25 18 -11 32 10 10 28 1 28 -15z m54 -15 c-9
-11 -15 -12 -25 -3 -11 9 -12 15 -3 25 9 11 15 12 25 3 11 -9 12 -15 3 -25z
m59 13 c2 -12 -3 -17 -17 -17 -12 0 -21 6 -21 13 0 31 32 34 38 4z m60 0 c2
-12 -3 -17 -17 -17 -12 0 -21 6 -21 13 0 31 32 34 38 4z m51 -13 c-9 -11 -15
-12 -25 -3 -11 9 -12 15 -3 25 9 11 15 12 25 3 11 -9 12 -15 3 -25z m170 0
c-9 -11 -15 -12 -25 -3 -11 9 -12 15 -3 25 9 11 15 12 25 3 11 -9 12 -15 3
-25z m59 13 c2 -12 -3 -17 -17 -17 -12 0 -21 6 -21 13 0 31 32 34 38 4z m60 0
c2 -12 -3 -17 -17 -17 -12 0 -21 6 -21 13 0 31 32 34 38 4z m51 -13 c-9 -11
-15 -12 -25 -3 -11 9 -12 15 -3 25 9 11 15 12 25 3 11 -9 12 -15 3 -25z m59
13 c2 -12 -3 -17 -17 -17 -12 0 -21 6 -21 13 0 31 32 34 38 4z m60 0 c2 -12
-3 -17 -17 -17 -12 0 -21 6 -21 13 0 31 32 34 38 4z m-740 -60 c2 -10 -3 -17
-12 -17 -18 0 -29 16 -21 31 9 14 29 6 33 -14z m57 3 c0 -8 -8 -16 -17 -18
-13 -2 -18 3 -18 18 0 15 5 20 18 18 9 -2 17 -10 17 -18z m55 0 c0 -11 -6 -20
-14 -20 -18 0 -29 16 -21 30 11 18 35 11 35 -10z m58 -3 c2 -10 -3 -17 -12
-17 -18 0 -29 16 -21 31 9 14 29 6 33 -14z m57 3 c0 -8 -8 -16 -17 -18 -13 -2
-18 3 -18 18 0 15 5 20 18 18 9 -2 17 -10 17 -18z m55 0 c0 -21 -24 -28 -35
-10 -8 14 3 30 21 30 8 0 14 -9 14 -20z m58 -3 c2 -10 -3 -17 -12 -17 -18 0
-29 16 -21 31 9 14 29 6 33 -14z m57 3 c0 -8 -8 -16 -17 -18 -13 -2 -18 3 -18
18 0 15 5 20 18 18 9 -2 17 -10 17 -18z m55 0 c0 -11 -6 -20 -14 -20 -18 0
-29 16 -21 30 11 18 35 11 35 -10z m58 -3 c2 -10 -3 -17 -12 -17 -18 0 -29 16
-21 31 9 14 29 6 33 -14z m57 2 c0 -7 -8 -15 -17 -17 -18 -3 -25 18 -11 32 10
10 28 1 28 -15z m55 1 c0 -11 -6 -20 -13 -20 -19 0 -27 10 -20 26 8 21 33 17
33 -6z m58 -3 c2 -10 -3 -17 -12 -17 -18 0 -29 16 -21 31 9 14 29 6 33 -14z
m57 2 c0 -7 -8 -15 -17 -17 -18 -3 -25 18 -11 32 10 10 28 1 28 -15z m-737
-56 c-2 -10 -10 -18 -18 -18 -8 0 -16 8 -18 18 -2 12 3 17 18 17 15 0 20 -5
18 -17z m57 -3 c0 -22 -29 -18 -33 3 -3 14 1 18 15 15 10 -2 18 -10 18 -18z
m59 11 c3 -5 -1 -15 -10 -22 -13 -10 -17 -10 -24 1 -5 8 -6 18 -4 22 7 11 31
10 38 -1z m54 -8 c-2 -10 -10 -18 -18 -18 -8 0 -16 8 -18 18 -2 12 3 17 18 17
15 0 20 -5 18 -17z m57 -3 c0 -22 -29 -18 -33 3 -3 14 1 18 15 15 10 -2 18
-10 18 -18z m58 14 c9 -9 -4 -34 -18 -34 -14 0 -27 25 -18 34 4 3 12 6 18 6 6
0 14 -3 18 -6z m55 -11 c-2 -10 -10 -18 -18 -18 -8 0 -16 8 -18 18 -2 12 3 17
18 17 15 0 20 -5 18 -17z m57 -3 c0 -22 -29 -18 -33 3 -3 14 1 18 15 15 10 -2
18 -10 18 -18z m58 14 c9 -9 -4 -34 -18 -34 -14 0 -27 25 -18 34 4 3 12 6 18
6 6 0 14 -3 18 -6z m55 -11 c-2 -10 -10 -18 -18 -18 -8 0 -16 8 -18 18 -2 12
3 17 18 17 15 0 20 -5 18 -17z m57 -3 c0 -22 -29 -18 -33 3 -3 14 1 18 15 15
10 -2 18 -10 18 -18z m58 14 c9 -9 -4 -34 -18 -34 -14 0 -27 25 -18 34 4 3 12
6 18 6 6 0 14 -3 18 -6z m55 -11 c-2 -10 -10 -18 -18 -18 -8 0 -16 8 -18 18
-2 12 3 17 18 17 15 0 20 -5 18 -17z m57 -3 c0 -22 -29 -18 -33 3 -3 14 1 18
15 15 10 -2 18 -10 18 -18z m-737 -53 c2 -12 -3 -17 -17 -17 -12 0 -21 6 -21
13 0 31 32 34 38 4z m60 0 c2 -12 -3 -17 -17 -17 -12 0 -21 6 -21 13 0 31 32
34 38 4z m51 -13 c-9 -11 -15 -12 -25 -3 -11 9 -12 15 -3 25 9 11 15 12 25 3
11 -9 12 -15 3 -25z m59 13 c2 -12 -3 -17 -17 -17 -12 0 -21 6 -21 13 0 31 32
34 38 4z m60 0 c2 -12 -3 -17 -17 -17 -12 0 -21 6 -21 13 0 31 32 34 38 4z
m51 -13 c-9 -11 -15 -12 -25 -3 -11 9 -12 15 -3 25 9 11 15 12 25 3 11 -9 12
-15 3 -25z m59 13 c2 -12 -3 -17 -17 -17 -12 0 -21 6 -21 13 0 31 32 34 38 4z
m60 0 c2 -12 -3 -17 -17 -17 -12 0 -21 6 -21 13 0 31 32 34 38 4z m51 -13 c-9
-11 -15 -12 -25 -3 -11 9 -12 15 -3 25 9 11 15 12 25 3 11 -9 12 -15 3 -25z
m59 13 c2 -12 -3 -17 -17 -17 -12 0 -21 6 -21 13 0 31 32 34 38 4z m60 0 c2
-12 -3 -17 -17 -17 -12 0 -21 6 -21 13 0 31 32 34 38 4z m51 -13 c-9 -11 -15
-12 -25 -3 -11 9 -12 15 -3 25 9 11 15 12 25 3 11 -9 12 -15 3 -25z m59 13 c2
-12 -3 -17 -17 -17 -12 0 -21 6 -21 13 0 31 32 34 38 4z m60 0 c2 -12 -3 -17
-17 -17 -12 0 -21 6 -21 13 0 31 32 34 38 4z m-740 -60 c2 -10 -3 -17 -12 -17
-18 0 -29 16 -21 31 9 14 29 6 33 -14z m57 3 c0 -8 -8 -16 -17 -18 -13 -2 -18
3 -18 18 0 15 5 20 18 18 9 -2 17 -10 17 -18z m55 0 c0 -11 -6 -20 -14 -20
-18 0 -29 16 -21 30 11 18 35 11 35 -10z m58 -3 c2 -10 -3 -17 -12 -17 -18 0
-29 16 -21 31 9 14 29 6 33 -14z m57 3 c0 -8 -8 -16 -17 -18 -13 -2 -18 3 -18
18 0 15 5 20 18 18 9 -2 17 -10 17 -18z m55 0 c0 -11 -6 -20 -14 -20 -18 0
-29 16 -21 30 11 18 35 11 35 -10z m58 -3 c2 -10 -3 -17 -12 -17 -18 0 -29 16
-21 31 9 14 29 6 33 -14z m57 2 c0 -7 -8 -15 -17 -17 -18 -3 -25 18 -11 32 10
10 28 1 28 -15z m55 1 c0 -11 -6 -20 -13 -20 -19 0 -27 10 -20 26 8 21 33 17
33 -6z m58 -3 c2 -10 -3 -17 -12 -17 -18 0 -29 16 -21 31 9 14 29 6 33 -14z
m57 2 c0 -7 -8 -15 -17 -17 -18 -3 -25 18 -11 32 10 10 28 1 28 -15z m58 6 c7
-17 -8 -29 -28 -21 -17 6 -9 36 10 36 7 0 15 -7 18 -15z m55 -8 c2 -10 -3 -17
-12 -17 -18 0 -29 16 -21 31 9 14 29 6 33 -14z m57 2 c0 -7 -8 -15 -17 -17
-18 -3 -25 18 -11 32 10 10 28 1 28 -15z m-737 -56 c-2 -10 -10 -18 -18 -18
-8 0 -16 8 -18 18 -2 12 3 17 18 17 15 0 20 -5 18 -17z m57 -3 c0 -22 -29 -18
-33 3 -3 14 1 18 15 15 10 -2 18 -10 18 -18z m58 14 c9 -9 -4 -34 -18 -34 -14
0 -27 25 -18 34 4 3 12 6 18 6 6 0 14 -3 18 -6z m55 -11 c-2 -10 -10 -18 -18
-18 -8 0 -16 8 -18 18 -2 12 3 17 18 17 15 0 20 -5 18 -17z m57 -3 c0 -22 -29
-18 -33 3 -3 14 1 18 15 15 10 -2 18 -10 18 -18z m58 14 c9 -9 -4 -34 -18 -34
-14 0 -27 25 -18 34 4 3 12 6 18 6 6 0 14 -3 18 -6z m55 -11 c-2 -10 -10 -18
-18 -18 -8 0 -16 8 -18 18 -2 12 3 17 18 17 15 0 20 -5 18 -17z m57 -3 c0 -22
-29 -18 -33 3 -3 14 1 18 15 15 10 -2 18 -10 18 -18z m58 14 c9 -9 -4 -34 -18
-34 -14 0 -27 25 -18 34 4 3 12 6 18 6 6 0 14 -3 18 -6z m55 -11 c-2 -10 -10
-18 -18 -18 -8 0 -16 8 -18 18 -2 12 3 17 18 17 15 0 20 -5 18 -17z m57 -3 c0
-22 -29 -18 -33 3 -3 14 1 18 15 15 10 -2 18 -10 18 -18z m58 14 c9 -9 -4 -34
-18 -34 -14 0 -27 25 -18 34 4 3 12 6 18 6 6 0 14 -3 18 -6z m57 -8 c0 -8 -5
-18 -11 -22 -14 -8 -33 11 -25 25 10 16 36 13 36 -3z m55 -6 c0 -22 -29 -18
-33 3 -3 14 1 18 15 15 10 -2 18 -10 18 -18z m-769 -55 c-3 -8 1 -18 8 -24 17
-14 56 -3 49 15 -7 19 5 34 22 27 18 -6 20 -29 3 -36 -8 -3 -6 -6 5 -6 9 -1
17 -5 17 -10 0 -5 9 -7 20 -4 16 4 20 0 20 -17 0 -17 -5 -21 -19 -17 -14 3
-21 -2 -25 -16 -6 -25 10 -48 30 -40 8 3 14 -1 14 -11 0 -19 -55 -23 -66 -5
-4 8 -9 7 -15 -2 -8 -12 -11 -11 -19 1 -7 12 -12 12 -22 2 -6 -6 -20 -12 -30
-12 -21 0 -25 39 -6 58 9 9 9 12 -1 12 -8 0 -11 6 -7 15 3 8 2 25 -3 38 -5 14
-5 30 1 40 10 20 32 12 24 -8z m143 -11 c-9 -11 -15 -12 -25 -3 -11 9 -12 15
-3 25 9 11 15 12 25 3 11 -9 12 -15 3 -25z m59 13 c2 -12 -3 -17 -17 -17 -12
0 -21 6 -21 13 0 31 32 34 38 4z m62 -3 c0 -8 -9 -14 -20 -14 -19 0 -27 19
-14 33 10 9 34 -4 34 -19z m49 -10 c-9 -11 -15 -12 -25 -3 -11 9 -12 15 -3 25
9 11 15 12 25 3 11 -9 12 -15 3 -25z m59 13 c2 -12 -3 -17 -17 -17 -12 0 -21
6 -21 13 0 31 32 34 38 4z m62 -3 c0 -8 -9 -14 -20 -14 -19 0 -27 19 -14 33
10 9 34 -4 34 -19z m49 -10 c-9 -11 -15 -12 -25 -3 -11 9 -12 15 -3 25 9 11
15 12 25 3 11 -9 12 -15 3 -25z m59 13 c2 -12 -3 -17 -17 -17 -12 0 -21 6 -21
13 0 31 32 34 38 4z m62 -3 c0 -8 -9 -14 -20 -14 -19 0 -27 19 -14 33 10 9 34
-4 34 -19z m49 -10 c-9 -11 -15 -12 -25 -3 -11 9 -12 15 -3 25 9 11 15 12 25
3 11 -9 12 -15 3 -25z m61 10 c0 -8 -9 -14 -20 -14 -22 0 -28 26 -7 33 16 6
27 -1 27 -19z m83 -34 c-8 -20 -8 -32 -1 -36 6 -4 5 -10 -3 -15 -11 -6 -11
-11 -1 -21 6 -6 12 -20 12 -30 0 -21 -39 -25 -58 -6 -7 7 -12 8 -12 2 0 -16
-103 -11 -108 5 -3 10 1 12 17 8 15 -3 24 1 31 14 6 10 7 19 2 19 -4 0 -6 16
-4 35 4 35 5 36 46 34 50 -3 72 7 57 25 -16 19 0 29 18 11 12 -12 13 -21 4
-45z m-595 -23 c2 -10 -3 -17 -12 -17 -18 0 -29 16 -21 31 9 14 29 6 33 -14z
m57 2 c0 -7 -8 -15 -17 -17 -18 -3 -25 18 -11 32 10 10 28 1 28 -15z m55 1 c0
-11 -6 -20 -13 -20 -19 0 -27 10 -20 26 8 21 33 17 33 -6z m58 -3 c2 -10 -3
-17 -12 -17 -18 0 -29 16 -21 31 9 14 29 6 33 -14z m57 2 c0 -7 -8 -15 -17
-17 -18 -3 -25 18 -11 32 10 10 28 1 28 -15z m55 1 c0 -11 -6 -20 -13 -20 -19
0 -27 10 -20 26 8 21 33 17 33 -6z m58 -3 c2 -10 -3 -17 -12 -17 -18 0 -29 16
-21 31 9 14 29 6 33 -14z m57 2 c0 -7 -8 -15 -17 -17 -18 -3 -25 18 -11 32 10
10 28 1 28 -15z m58 6 c7 -17 -8 -29 -28 -21 -17 6 -9 36 10 36 7 0 15 -7 18
-15z m-455 -62 c-2 -10 -10 -18 -18 -18 -8 0 -16 8 -18 18 -2 12 3 17 18 17
15 0 20 -5 18 -17z m57 -3 c0 -22 -29 -18 -33 3 -3 14 1 18 15 15 10 -2 18
-10 18 -18z m58 14 c9 -9 -4 -34 -18 -34 -14 0 -27 25 -18 34 4 3 12 6 18 6 6
0 14 -3 18 -6z m57 -8 c0 -8 -5 -18 -11 -22 -14 -8 -33 11 -25 25 10 16 36 13
36 -3z m55 -6 c0 -22 -29 -18 -33 3 -3 14 1 18 15 15 10 -2 18 -10 18 -18z
m58 14 c9 -9 -4 -34 -18 -34 -14 0 -27 25 -18 34 4 3 12 6 18 6 6 0 14 -3 18
-6z m57 -8 c0 -8 -5 -18 -11 -22 -14 -8 -33 11 -25 25 10 16 36 13 36 -3z m55
-6 c0 -22 -29 -18 -33 3 -3 14 1 18 15 15 10 -2 18 -10 18 -18z"/>
<path d="M665 1131 c-6 -11 9 -23 19 -14 9 9 7 23 -3 23 -6 0 -12 -4 -16 -9z"/>
<path d="M604 1115 c-3 -8 -3 -19 1 -25 3 -5 0 -10 -7 -10 -10 0 -9 -3 2 -10
9 -5 19 -5 27 2 9 7 13 7 13 -1 0 -6 8 -11 18 -12 11 0 7 -4 -11 -11 -16 -6
-30 -20 -33 -34 -7 -26 -20 -32 -27 -11 -2 6 -4 -6 -4 -28 0 -22 2 -33 4 -23
2 9 18 23 35 31 18 9 26 17 19 21 -19 12 -12 28 9 21 11 -4 20 -2 20 4 0 6 5
11 10 11 6 0 10 -7 10 -16 0 -14 3 -14 15 -4 19 16 32 5 16 -14 -9 -11 -8 -15
6 -21 17 -6 17 -7 0 -20 -12 -8 -14 -15 -8 -20 20 -12 12 -26 -8 -16 -15 8
-20 7 -26 -6 -5 -14 -8 -15 -15 -4 -4 8 -15 11 -24 8 -10 -4 -16 -1 -16 8 0 8
6 15 13 15 6 0 4 5 -6 11 -24 14 -30 7 -22 -24 4 -16 16 -28 33 -32 l27 -7
-24 -9 c-15 -6 -27 -6 -30 0 -3 5 -12 3 -19 -5 -7 -8 -9 -14 -3 -14 5 0 7 -9
4 -20 -3 -11 0 -20 6 -20 19 0 26 5 24 15 -2 6 10 16 25 23 23 10 29 10 38 -3
6 -8 14 -12 17 -8 4 3 7 -4 7 -16 0 -18 3 -20 20 -11 11 6 17 16 14 25 -4 9
-1 15 7 15 7 0 5 6 -7 14 -11 8 -21 10 -25 5 -3 -6 -15 -6 -29 -1 -23 9 -23 9
7 19 20 8 33 20 37 38 7 26 8 27 22 9 15 -18 15 -18 5 1 -6 12 -6 26 0 37 6
12 6 18 0 18 -5 0 -12 -8 -14 -17 -3 -13 -7 -8 -12 14 -6 25 -14 33 -37 38
-25 6 -32 20 -10 20 4 0 13 4 20 8 6 5 12 4 12 -1 0 -6 9 -8 21 -5 15 4 17 8
8 14 -8 4 -10 11 -6 15 8 8 -11 34 -25 34 -5 0 -8 -6 -6 -14 2 -8 -1 -15 -7
-16 -5 -1 -18 -8 -27 -17 -16 -14 -18 -14 -24 1 -3 9 -12 16 -20 16 -8 0 -11
6 -8 15 4 10 0 15 -10 15 -9 0 -19 -7 -22 -15z"/>
<path d="M766 1045 c-3 -9 -6 -18 -6 -19 0 -1 9 -2 20 -2 13 0 20 6 18 15 -4
21 -24 25 -32 6z"/>
<path d="M665 980 c-8 -13 9 -20 24 -11 10 6 9 10 -3 14 -8 3 -18 2 -21 -3z"/>
<path d="M760 919 c0 -4 6 -12 14 -18 11 -9 15 -8 20 5 3 8 6 17 6 18 0 1 -9
2 -20 2 -11 0 -20 -3 -20 -7z"/>
<path d="M665 831 c-6 -11 9 -23 19 -14 9 9 7 23 -3 23 -6 0 -12 -4 -16 -9z"/>
<path d="M133 1695 c-3 -9 -3 -18 -1 -21 3 -3 8 4 11 16 6 23 -1 27 -10 5z"/>
<path d="M175 1685 c-4 -11 -17 -32 -27 -47 -21 -30 -24 -74 -5 -81 10 -4 10
-6 0 -6 -7 -1 -13 -11 -13 -22 0 -18 2 -20 16 -8 9 8 13 21 10 35 -4 14 2 38
14 60 12 20 19 48 17 63 -3 24 -4 24 -12 6z m-12 -66 c-9 -18 -18 -28 -20 -22
-4 12 27 67 33 60 2 -2 -3 -19 -13 -38z"/>
<path d="M181 1564 c0 -11 3 -14 6 -6 3 7 2 16 -1 19 -3 4 -6 -2 -5 -13z"/>
<path d="M172 1520 c-7 -11 -10 -31 -6 -45 4 -16 -1 -34 -15 -54 -22 -30 -30
-87 -10 -75 6 3 8 17 5 29 -3 13 -2 27 4 30 5 3 10 -2 10 -12 0 -13 4 -10 15
11 18 35 20 76 3 76 -10 0 -10 2 0 9 8 4 12 18 10 30 -3 22 -3 22 -16 1z m0
-102 c-7 -7 -12 -8 -12 -2 0 14 12 26 19 19 2 -3 -1 -11 -7 -17z"/>
<path d="M133 1485 c-3 -9 -3 -18 -1 -21 3 -3 8 4 11 16 6 23 -1 27 -10 5z"/>
<path d="M181 1344 c0 -11 3 -14 6 -6 3 7 2 16 -1 19 -3 4 -6 -2 -5 -13z"/>
<path d="M143 1333 c-7 -3 -13 -14 -13 -26 0 -20 1 -20 16 -5 18 18 16 37 -3
31z"/>
<path d="M172 1299 c-8 -12 -10 -24 -5 -28 11 -8 10 -67 -1 -78 -5 -5 -7 -1
-3 10 11 29 -7 19 -21 -13 -8 -16 -12 -40 -9 -52 3 -22 4 -22 12 -3 4 11 17
32 27 47 14 21 18 41 16 83 -3 51 -4 54 -16 34z m-20 -131 c-7 -7 -12 -8 -12
-2 0 14 12 26 19 19 2 -3 -1 -11 -7 -17z"/>
<path d="M133 1265 c-3 -9 -3 -18 -1 -21 3 -3 8 4 11 16 6 23 -1 27 -10 5z"/>
<path d="M182 1120 c-1 -20 -7 -41 -14 -48 -14 -14 -7 -24 10 -13 9 5 12 23 9
52 -3 39 -4 40 -5 9z"/>
<path d="M143 1113 c-7 -3 -13 -14 -13 -26 0 -21 0 -21 16 1 17 25 16 32 -3
25z"/>
<path d="M133 1045 c-3 -9 -3 -18 -1 -21 3 -3 8 4 11 16 6 23 -1 27 -10 5z"/>
<path d="M158 1000 c-18 -37 -27 -70 -27 -104 1 -47 1 -48 17 -25 11 15 12 24
4 27 -13 4 -6 26 20 64 12 17 18 40 16 60 l-3 33 -27 -55z m6 -35 c-23 -35
-28 -26 -7 16 9 18 18 28 20 22 3 -7 -3 -23 -13 -38z"/>
<path d="M182 905 c-1 -17 -7 -36 -13 -42 -15 -15 -8 -35 9 -24 9 5 12 23 9
52 -2 30 -4 34 -5 14z"/>
<path d="M133 825 c-3 -9 -3 -18 -1 -21 3 -3 8 4 11 16 6 23 -1 27 -10 5z"/>
<path d="M175 815 c-4 -11 -17 -32 -27 -47 -21 -30 -24 -74 -5 -81 10 -4 10
-6 0 -6 -7 -1 -13 -11 -13 -22 0 -18 2 -20 16 -8 9 8 13 21 10 35 -4 14 2 38
14 60 12 20 19 48 17 63 -3 24 -4 24 -12 6z m-12 -66 c-9 -18 -18 -28 -20 -22
-4 12 27 67 33 60 2 -2 -3 -19 -13 -38z"/>
<path d="M181 694 c0 -11 3 -14 6 -6 3 7 2 16 -1 19 -3 4 -6 -2 -5 -13z"/>
<path d="M173 650 c-15 -23 -17 -44 -4 -36 14 9 0 -36 -21 -66 -20 -28 -25
-84 -7 -72 6 3 8 17 5 29 -4 14 -1 27 6 31 8 5 9 2 5 -9 -11 -30 8 -18 21 12
7 16 12 53 10 81 -3 45 -4 48 -15 30z m-1 -102 c-7 -7 -12 -8 -12 -2 0 14 12
26 19 19 2 -3 -1 -11 -7 -17z"/>
<path d="M133 615 c-3 -9 -3 -18 -1 -21 3 -3 8 4 11 16 6 23 -1 27 -10 5z"/>
<path d="M181 474 c0 -11 3 -14 6 -6 3 7 2 16 -1 19 -3 4 -6 -2 -5 -13z"/>
<path d="M143 463 c-7 -3 -13 -14 -13 -25 0 -18 1 -18 16 -4 18 18 16 35 -3
29z"/>
<path d="M172 429 c-10 -15 -10 -24 -3 -28 7 -5 2 -24 -15 -56 -14 -28 -23
-61 -21 -75 3 -23 4 -24 12 -5 4 11 17 32 27 47 14 21 18 41 16 83 -3 51 -4
54 -16 34z m8 -86 c0 -5 -10 -19 -21 -33 -11 -14 -18 -18 -15 -10 3 8 9 23 12
33 6 17 24 24 24 10z"/>
<path d="M133 395 c-3 -9 -3 -18 -1 -21 3 -3 8 4 11 16 6 23 -1 27 -10 5z"/>
<path d="M182 248 c-1 -20 -7 -40 -13 -44 -7 -4 -1 -16 15 -33 20 -21 23 -30
14 -39 -9 -9 -5 -12 21 -12 29 0 32 2 21 15 -20 24 -6 27 23 5 14 -11 29 -20
34 -20 4 0 1 5 -7 10 -8 5 -16 14 -16 20 -1 5 -2 14 -3 19 0 6 -18 11 -38 13
-38 3 -38 4 -44 53 -5 44 -6 45 -7 13z"/>
<path d="M143 243 c-7 -3 -13 -17 -13 -31 0 -24 1 -25 16 -10 18 18 16 47 -3
41z"/>
<path d="M280 169 c0 -7 12 -9 34 -5 22 4 37 2 42 -5 5 -9 1 -10 -14 -7 -12 4
-20 2 -16 -3 3 -5 12 -9 20 -9 8 0 14 -4 14 -10 0 -15 57 -12 63 3 4 10 6 10
6 0 1 -7 11 -13 22 -13 18 0 20 2 8 16 -8 10 -21 13 -36 9 -16 -4 -34 1 -53
15 -30 21 -90 27 -90 9z m105 -29 c3 -5 2 -10 -4 -10 -5 0 -13 5 -16 10 -3 6
-2 10 4 10 5 0 13 -4 16 -10z"/>
<path d="M425 173 c17 -3 40 -15 53 -29 13 -13 28 -24 35 -24 7 0 4 5 -5 11
-10 5 -18 17 -18 26 0 14 3 13 22 -3 12 -10 18 -14 15 -8 -9 16 24 27 37 13 8
-9 6 -10 -9 -5 -16 5 -15 2 5 -14 24 -19 94 -30 75 -11 -38 36 -88 51 -163 50
-42 -1 -63 -4 -47 -6z m180 -33 c3 -5 -1 -10 -9 -10 -8 0 -18 5 -21 10 -3 6 1
10 9 10 8 0 18 -4 21 -10z"/>
<path d="M642 173 c25 -3 41 -12 52 -29 9 -13 24 -24 34 -24 14 1 14 3 -4 13
-12 7 -19 17 -17 23 5 15 40 6 75 -18 17 -11 39 -18 55 -16 25 4 26 5 8 13
-11 4 -31 16 -45 26 -20 13 -45 17 -110 16 -47 0 -68 -2 -48 -4z m158 -23 c14
-11 21 -20 15 -20 -5 0 -21 9 -35 20 -14 11 -20 20 -15 20 6 0 21 -9 35 -20z"/>
<path d="M862 173 c25 -3 41 -12 52 -29 9 -13 24 -24 34 -23 14 0 14 2 -3 8
-11 5 -21 13 -21 20 -1 6 -2 16 -3 21 0 6 -22 9 -48 8 -43 -1 -44 -2 -11 -5z"/>
<path d="M1193 165 c0 -8 4 -12 9 -9 4 3 8 9 8 15 0 5 -4 9 -8 9 -5 0 -9 -7
-9 -15z"/>
<path d="M166 148 c3 -4 9 -8 15 -8 5 0 9 4 9 8 0 5 -7 9 -15 9 -8 0 -12 -4
-9 -9z"/>
<path d="M130 135 c0 -8 7 -15 16 -15 14 0 14 3 4 15 -7 8 -14 15 -16 15 -2 0
-4 -7 -4 -15z"/>
<path d="M646 135 c4 -8 15 -15 26 -15 17 0 18 2 4 15 -8 8 -19 15 -25 15 -6
0 -8 -7 -5 -15z"/>
<path d="M866 135 c4 -8 13 -15 21 -15 13 0 13 3 3 15 -7 8 -16 15 -21 15 -5
0 -6 -7 -3 -15z"/>
<path d="M1210 135 c-10 -12 -10 -15 4 -15 9 0 16 7 16 15 0 8 -2 15 -4 15 -2
0 -9 -7 -16 -15z"/>
</g>
</svg>
